<svg width="38" height="38" viewBox="0 0 38 38" fill="none" xmlns="http://www.w3.org/2000/svg">
<g filter="url(#filter0_d_5122_157)">
<path d="M12.1622 18.8689C12.0233 18.599 11.9718 18.2926 12.0147 17.9922C12.0577 17.6917 12.1931 17.4121 12.4021 17.192C12.6181 16.9694 12.8954 16.8166 13.1997 16.7542L15.2005 16.4003C15.7026 16.3079 16.1762 16.1 16.5841 15.7932C16.992 15.4863 17.3229 15.0888 17.5508 14.6321L18.4502 12.7821C18.5943 12.5102 18.82 12.2903 19.0957 12.1534C19.3713 12.0165 19.683 11.9696 19.9867 12.0192C20.2905 12.0687 20.571 12.2124 20.7888 12.4298C21.0066 12.6473 21.1507 12.9276 21.2008 13.2312L21.5558 15.2347C21.6481 15.7369 21.8558 16.2108 22.1628 16.6189C22.4697 17.0269 22.8673 17.3581 23.3242 17.5861L25.1699 18.4877C25.4406 18.6291 25.6605 18.8514 25.799 19.1236C25.9374 19.3958 25.9876 19.7044 25.9425 20.0065C25.8974 20.3085 25.7593 20.589 25.5473 20.8089C25.3353 21.0287 25.0601 21.1771 24.7599 21.2333L22.7195 21.5959C22.2304 21.6901 21.769 21.8941 21.3702 22.1924C20.9714 22.4908 20.6454 22.8757 20.4169 23.3182L19.5218 25.1673C19.3802 25.4379 19.1578 25.6575 18.8855 25.7959C18.6133 25.9343 18.3047 25.9845 18.0027 25.9395C17.7006 25.8946 17.42 25.7567 17.1999 25.5451C16.9797 25.3334 16.8309 25.0585 16.7742 24.7585L16.4231 22.7569C16.3308 22.2522 16.1214 21.7763 15.8116 21.3673C15.5019 20.9583 15.1004 20.6277 14.6396 20.402L12.7897 19.4999C12.5195 19.3596 12.3005 19.1384 12.1622 18.8689Z" fill="#358BB9"/>
</g>
<defs>
<filter id="filter0_d_5122_157" x="0" y="0" width="37.9586" height="37.9556" filterUnits="userSpaceOnUse" color-interpolation-filters="sRGB">
<feFlood flood-opacity="0" result="BackgroundImageFix"/>
<feColorMatrix in="SourceAlpha" type="matrix" values="0 0 0 0 0 0 0 0 0 0 0 0 0 0 0 0 0 0 127 0" result="hardAlpha"/>
<feOffset/>
<feGaussianBlur stdDeviation="6"/>
<feComposite in2="hardAlpha" operator="out"/>
<feColorMatrix type="matrix" values="0 0 0 0 0.532812 0 0 0 0 0.184062 0 0 0 0 0.590937 0 0 0 0.35 0"/>
<feBlend mode="normal" in2="BackgroundImageFix" result="effect1_dropShadow_5122_157"/>
<feBlend mode="normal" in="SourceGraphic" in2="effect1_dropShadow_5122_157" result="shape"/>
</filter>
</defs>
</svg>
